<?xml version="1.0" encoding="utf-8"?>
<!-- Generator: Adobe Illustrator 15.0.0, SVG Export Plug-In . SVG Version: 6.00 Build 0)  -->
<!DOCTYPE svg PUBLIC "-//W3C//DTD SVG 1.1//EN" "http://www.w3.org/Graphics/SVG/1.1/DTD/svg11.dtd">
<svg version="1.1" xmlns="http://www.w3.org/2000/svg" xmlns:xlink="http://www.w3.org/1999/xlink" x="0px" y="0px"
	 width="443.621px" height="197.166px" viewBox="0 0 443.621 197.166" enable-background="new 0 0 443.621 197.166"
	 xml:space="preserve">
<g id="Layer_1" display="none">
	<g id="BODY_-_ECO_ROOF" display="inline">
		<g id="LIFTING_DECK_-_ECO_ROOF" display="none">
			<line display="inline" fill="none" stroke="#333333" stroke-width="7" x1="75.172" y1="125.554" x2="75.172" y2="134.683"/>
			<line display="inline" fill="none" stroke="#333333" stroke-width="7" x1="154.991" y1="159.612" x2="154.991" y2="163.036"/>
			<line display="inline" fill="none" stroke="#333333" stroke-width="5" x1="154.991" y1="144.199" x2="154.991" y2="159.612"/>
			<line display="inline" fill="none" stroke="#333333" stroke-width="5" x1="409.588" y1="152.8" x2="409.588" y2="157.089"/>
			<line display="inline" fill="none" stroke="#333333" stroke-width="5" x1="406.588" y1="138.199" x2="406.588" y2="157.069"/>
			<line display="inline" fill="none" stroke="#333333" stroke-width="4" x1="169.921" y1="139.917" x2="169.921" y2="155.33"/>
			<line display="inline" fill="none" stroke="#333333" stroke-width="4" x1="240.921" y1="139.917" x2="240.921" y2="155.33"/>
			<line display="inline" fill="none" stroke="#333333" stroke-width="5" x1="163.588" y1="157.33" x2="246.921" y2="157.33"/>
			<line display="inline" fill="none" stroke="#333333" stroke-width="7" x1="150.921" y1="145.623" x2="414.566" y2="145.623"/>
			<polygon display="inline" fill="#333333" points="153.671,133.621 110.254,129.746 153.671,129.746 			"/>
			<line display="inline" fill="none" stroke="#333333" stroke-width="7" x1="154.991" y1="86.762" x2="414.566" y2="86.762"/>
			<path display="inline" fill="#333333" d="M304.016,148.33c-5.934,0-10.761,4.828-10.761,10.76
				c0,5.935,4.827,10.761,10.761,10.761s10.76-4.826,10.76-10.761C314.775,153.158,309.948,148.33,304.016,148.33z"/>
			<path display="inline" fill="#333333" d="M266.882,148.33c-5.935,0-10.761,4.828-10.761,10.76
				c0,5.935,4.826,10.761,10.761,10.761c5.933,0,10.76-4.826,10.76-10.761C277.642,153.158,272.814,148.33,266.882,148.33z"/>
			<path display="inline" fill="#333333" d="M341.149,148.33c-5.934,0-10.761,4.828-10.761,10.76
				c0,5.935,4.827,10.761,10.761,10.761s10.761-4.826,10.761-10.761C351.909,153.158,347.082,148.33,341.149,148.33z"/>
			<polygon display="inline" fill="#333333" points="307.582,97.614 293.254,121.201 278.928,97.614 			"/>
			<polygon display="inline" fill="#333333" points="278.928,75.909 293.256,52.323 307.582,75.909 			"/>
			<g display="inline">
				<path fill="#333333" d="M139.5,31.473v7c4.92,0,9.909,0.026,15.491,0.058h121.539h131.036v48.47v48.471L274.8,135.47
					l-116.879-0.003v-5.168v-7h-7H82.044H36.055V60.116C65.615,40.063,97.75,38.473,139.5,38.473V31.473 M139.5,31.473
					c-45.141,0-79.007,2.248-110.445,25.002v73.824h52.989h68.877v6.084v6.084L274.8,142.47l139.767,0.002V87.001v-55.47H276.53
					H154.99C149.679,31.5,144.521,31.473,139.5,31.473L139.5,31.473z"/>
			</g>
		</g>
		<g id="FIXED_DOUBLE_DECK_-_ECO_ROOF" display="none">
			<g display="inline">
				<path fill="#333333" d="M139.5,31.473v7c4.92,0,9.909,0.026,15.491,0.058h121.539h131.036v48.47v48.471L274.8,135.47
					l-116.879-0.003v-5.168v-7h-7H82.044H36.055V60.116C65.615,40.063,97.75,38.473,139.5,38.473V31.473 M139.5,31.473
					c-45.141,0-79.007,2.248-110.445,25.002v73.824h52.989h68.877v6.084v6.084L274.8,142.47l139.767,0.002V87.001v-55.47H276.53
					H154.99C149.679,31.5,144.521,31.473,139.5,31.473L139.5,31.473z"/>
			</g>
			<line display="inline" fill="none" stroke="#333333" stroke-width="7" x1="75.172" y1="125.554" x2="75.172" y2="134.683"/>
			<line display="inline" fill="none" stroke="#333333" stroke-width="7" x1="154.991" y1="159.612" x2="154.991" y2="163.036"/>
			<line display="inline" fill="none" stroke="#333333" stroke-width="5" x1="154.991" y1="144.199" x2="154.991" y2="159.612"/>
			<line display="inline" fill="none" stroke="#333333" stroke-width="5" x1="409.588" y1="152.8" x2="409.588" y2="157.089"/>
			<line display="inline" fill="none" stroke="#333333" stroke-width="5" x1="406.588" y1="138.199" x2="406.588" y2="157.069"/>
			<line display="inline" fill="none" stroke="#333333" stroke-width="4" x1="169.921" y1="139.917" x2="169.921" y2="155.33"/>
			<line display="inline" fill="none" stroke="#333333" stroke-width="4" x1="240.921" y1="139.917" x2="240.921" y2="155.33"/>
			<line display="inline" fill="none" stroke="#333333" stroke-width="5" x1="163.588" y1="157.33" x2="246.921" y2="157.33"/>
			<line display="inline" fill="none" stroke="#333333" stroke-width="7" x1="150.921" y1="145.623" x2="414.566" y2="145.623"/>
			<polygon display="inline" fill="#333333" points="153.671,133.621 110.254,129.746 153.671,129.746 			"/>
			<line display="inline" fill="none" stroke="#333333" stroke-width="7" x1="154.991" y1="86.762" x2="414.566" y2="86.762"/>
			<path display="inline" fill="#333333" d="M304.016,148.33c-5.934,0-10.761,4.828-10.761,10.76
				c0,5.935,4.827,10.761,10.761,10.761s10.76-4.826,10.76-10.761C314.775,153.158,309.948,148.33,304.016,148.33z"/>
			<path display="inline" fill="#333333" d="M266.882,148.33c-5.935,0-10.761,4.828-10.761,10.76
				c0,5.935,4.826,10.761,10.761,10.761c5.933,0,10.76-4.826,10.76-10.761C277.642,153.158,272.814,148.33,266.882,148.33z"/>
			<path display="inline" fill="#333333" d="M341.149,148.33c-5.934,0-10.761,4.828-10.761,10.76
				c0,5.935,4.827,10.761,10.761,10.761s10.761-4.826,10.761-10.761C351.909,153.158,347.082,148.33,341.149,148.33z"/>
		</g>
	</g>
	<g id="DRAW_BAR_COMBINATION">
		<g id="Rigid_chassis" display="inline" opacity="0.3">
			<path stroke="#000000" stroke-width="7" d="M235.072,134.062L65.12,134.087c0,0-1.378-13.046-15.076-13.046
				c-11.887,0-14.207,12.578-14.207,12.578H31.49V96.69c12.175-34.792,41.787-33.678,41.787-33.678V128h161.854L235.072,134.062z"/>
			<circle stroke="#000000" cx="50.455" cy="135.256" r="10.304"/>
			<circle stroke="#000000" cx="165.728" cy="135.256" r="10.304"/>
			<circle stroke="#000000" cx="189.502" cy="135.256" r="10.304"/>
		</g>
		<rect x="82.915" y="51.604" display="inline" fill="none" stroke="#333333" stroke-width="7" width="152.572" height="69.895"/>
		<rect x="259.353" y="51.604" display="inline" fill="none" stroke="#333333" stroke-width="7" width="152.571" height="69.895"/>
		<circle display="inline" fill="#333333" cx="320.732" cy="135.256" r="10.305"/>
		<circle display="inline" fill="#333333" cx="353.504" cy="135.256" r="10.305"/>
		<polyline display="inline" fill="none" stroke="#333333" stroke-width="7" points="226.926,130.817 274.922,130.817 
			282.691,123.048 263.183,123.048 255.931,130.474 		"/>
		<g id="CHASSIS_INST" display="inline">
			<line display="none" fill="none" stroke="#333333" stroke-width="7" x1="255.217" y1="122.535" x2="415.041" y2="122.535"/>
			<line fill="none" stroke="#333333" stroke-width="7" x1="79.289" y1="122.535" x2="239.112" y2="122.535"/>
		</g>
	</g>
	<g id="BOX_RIGID">
		<g id="Rigid_chassis_1_" display="inline" opacity="0.3">
			<path stroke="#000000" stroke-width="7" d="M367.638,147.753l-263.754,0.034c0,0-1.786-16.909-19.54-16.909
				c-15.407,0-18.414,16.303-18.414,16.303h-5.634V99.317c15.78-45.095,54.161-43.65,54.161-43.65v84.229h253.181V147.753z"/>
			<circle stroke="#000000" cx="85.021" cy="148.84" r="15.022"/>
			<circle stroke="#000000" cx="289.678" cy="148.84" r="15.022"/>
		</g>
		<rect x="123.821" y="38.986" display="inline" fill="none" stroke="#333333" stroke-width="7" width="243.78" height="95.131"/>
	</g>
	<g id="TRAILER" display="inline">
		<g id="BODY_-_FLAT_ROOF">
			<g id="WEDGE_DOUBLE_DECK" display="none">
				<g id="side_dd_WDG_1_" display="inline">
					<path fill="#333333" d="M407.624,38.531l-0.16,98.322l-371.409-17.97V38.531H407.624 M414.636,31.531H29.055v94.023
						l385.397,18.646L414.636,31.531L414.636,31.531z"/>
				</g>
				<line display="inline" fill="none" stroke="#333333" stroke-width="7" x1="75.172" y1="122.554" x2="75.172" y2="131.683"/>
				<line display="inline" fill="none" stroke="#333333" stroke-width="7" x1="154.991" y1="153.237" x2="154.991" y2="156.662"/>
				<line display="inline" fill="none" stroke="#333333" stroke-width="5" x1="154.991" y1="138.007" x2="154.991" y2="153.95"/>
				<line display="inline" fill="none" stroke="#333333" stroke-width="5" x1="409.588" y1="154.8" x2="409.588" y2="159.089"/>
				<line display="inline" fill="none" stroke="#333333" stroke-width="5" x1="406.588" y1="140.199" x2="406.588" y2="159.069"/>
				<line display="inline" fill="none" stroke="#333333" stroke-width="4" x1="174.47" y1="138.537" x2="174.47" y2="155.33"/>
				<line display="inline" fill="none" stroke="#333333" stroke-width="4" x1="164.554" y1="145.112" x2="164.554" y2="159.819"/>
				<line display="inline" fill="none" stroke="#333333" stroke-width="4" x1="238.921" y1="139.917" x2="238.921" y2="155.33"/>
				<line display="inline" fill="none" stroke="#333333" stroke-width="5" x1="163.588" y1="157.33" x2="246.921" y2="157.33"/>
				<line display="inline" fill="none" stroke="#333333" stroke-width="5" x1="163.588" y1="147.623" x2="246.921" y2="147.623"/>
				<line display="inline" fill="none" stroke="#333333" stroke-width="7" x1="153.054" y1="134.944" x2="414.566" y2="147.199"/>
				<polygon display="inline" fill="#333333" points="153.721,138.537 110.326,129.485 153.721,131.546 				"/>
				<line display="inline" fill="none" stroke="#333333" stroke-width="7" x1="31.491" y1="84.791" x2="411.866" y2="91.762"/>
				<path display="inline" fill="#333333" d="M304.016,143.981c-8.331,0-15.109,6.779-15.109,15.107
					c0,8.331,6.778,15.109,15.109,15.109c8.33,0,15.108-6.778,15.108-15.109C319.124,150.76,312.346,143.981,304.016,143.981z"/>
				<path display="inline" fill="#333333" d="M266.882,143.981c-8.331,0-15.109,6.779-15.109,15.107
					c0,8.331,6.778,15.109,15.109,15.109c8.33,0,15.107-6.778,15.107-15.109C281.99,150.76,275.212,143.981,266.882,143.981z"/>
				<path display="inline" fill="#333333" d="M341.149,144.065c-8.284,0-15.023,6.742-15.023,15.023
					c0,8.284,6.739,15.023,15.023,15.023c8.283,0,15.023-6.739,15.023-15.023C356.173,150.808,349.433,144.065,341.149,144.065z"/>
			</g>
			<g id="FIXED_DOUBLE_DECK_-_FLAT_ROOF" display="none">
				<line display="inline" fill="none" stroke="#333333" stroke-width="7" x1="75.172" y1="125.554" x2="75.172" y2="134.683"/>
				<line display="inline" fill="none" stroke="#333333" stroke-width="7" x1="154.991" y1="159.612" x2="154.991" y2="163.036"/>
				<line display="inline" fill="none" stroke="#333333" stroke-width="5" x1="154.991" y1="144.199" x2="154.991" y2="159.612"/>
				<line display="inline" fill="none" stroke="#333333" stroke-width="5" x1="409.588" y1="152.8" x2="409.588" y2="157.089"/>
				<line display="inline" fill="none" stroke="#333333" stroke-width="5" x1="406.588" y1="138.199" x2="406.588" y2="157.069"/>
				<line display="inline" fill="none" stroke="#333333" stroke-width="4" x1="169.921" y1="139.917" x2="169.921" y2="155.33"/>
				<line display="inline" fill="none" stroke="#333333" stroke-width="4" x1="240.921" y1="139.917" x2="240.921" y2="155.33"/>
				<line display="inline" fill="none" stroke="#333333" stroke-width="5" x1="163.588" y1="157.33" x2="246.921" y2="157.33"/>
				<line display="inline" fill="none" stroke="#333333" stroke-width="7" x1="150.921" y1="145.623" x2="414.566" y2="145.623"/>
				<polygon display="inline" fill="#333333" points="153.671,133.621 110.254,129.746 153.671,129.746 				"/>
				<g id="side_dd_stp_ecoS_3_" display="inline">
					<path fill="#333333" d="M407.566,38.531v96.941l-249.559-0.005v-5.168v-7h-7H36.055V38.531H407.566 M414.566,31.531H29.055
						v98.768h121.953v12.168l263.559,0.005L414.566,31.531L414.566,31.531z"/>
				</g>
				<line display="inline" fill="none" stroke="#333333" stroke-width="7" x1="154.991" y1="86.762" x2="414.566" y2="86.762"/>
				<g id="WHEELS_1_" display="inline">
					<path fill="#333333" d="M304.016,148.33c-5.934,0-10.761,4.828-10.761,10.76c0,5.935,4.827,10.761,10.761,10.761
						s10.76-4.826,10.76-10.761C314.775,153.158,309.948,148.33,304.016,148.33z"/>
					<path fill="#333333" d="M266.882,148.33c-5.935,0-10.761,4.828-10.761,10.76c0,5.935,4.826,10.761,10.761,10.761
						c5.933,0,10.76-4.826,10.76-10.761C277.642,153.158,272.814,148.33,266.882,148.33z"/>
					<path fill="#333333" d="M341.149,148.33c-5.934,0-10.761,4.828-10.761,10.76c0,5.935,4.827,10.761,10.761,10.761
						s10.761-4.826,10.761-10.761C351.909,153.158,347.082,148.33,341.149,148.33z"/>
				</g>
			</g>
			<g id="LONGER_SEMI-TRAILER_-_FLAT_ROOF" display="none">
				<line display="inline" fill="none" stroke="#333333" stroke-width="7" x1="46.117" y1="125.554" x2="46.117" y2="134.683"/>
				<line display="inline" fill="none" stroke="#333333" stroke-width="7" x1="125.936" y1="159.612" x2="125.936" y2="163.036"/>
				<line display="inline" fill="none" stroke="#333333" stroke-width="5" x1="125.936" y1="144.199" x2="125.936" y2="159.612"/>
				<line display="inline" fill="none" stroke="#333333" stroke-width="5" x1="438.865" y1="152.8" x2="438.865" y2="157.089"/>
				<line display="inline" fill="none" stroke="#333333" stroke-width="5" x1="435.865" y1="138.199" x2="435.865" y2="157.069"/>
				<line display="inline" fill="none" stroke="#333333" stroke-width="4" x1="140.866" y1="139.917" x2="140.866" y2="155.33"/>
				<line display="inline" fill="none" stroke="#333333" stroke-width="4" x1="230.866" y1="139.917" x2="230.866" y2="155.33"/>
				<line display="inline" fill="none" stroke="#333333" stroke-width="5" x1="134.533" y1="157.33" x2="236.2" y2="157.33"/>
				<line display="inline" fill="none" stroke="#333333" stroke-width="7" x1="121.866" y1="145.623" x2="443.474" y2="145.623"/>
				<polygon display="inline" fill="#333333" points="124.616,133.621 81.2,129.746 124.616,129.746 				"/>
				<g id="side_dd_stp_ecoS_1_" display="inline">
					<path fill="#333333" d="M436.621,38.531v96.941l-307.668-0.005v-5.168v-7h-7H7V38.531H436.621 M443.621,31.531H0v98.768
						h121.953v12.168l321.668,0.005V31.531L443.621,31.531z"/>
				</g>
				<g id="WHEELS" display="inline">
					<path fill="#333333" d="M350.511,148.33c-5.938,0-10.763,4.828-10.763,10.76c0,5.935,4.825,10.761,10.763,10.761
						c5.932,0,10.758-4.826,10.758-10.761C361.269,153.158,356.442,148.33,350.511,148.33z"/>
					<path fill="#333333" d="M291.535,148.33c-5.936,0-10.761,4.828-10.761,10.76c0,5.935,4.825,10.761,10.761,10.761
						c5.935,0,10.76-4.826,10.76-10.761C302.295,153.158,297.47,148.33,291.535,148.33z"/>
					<path fill="#333333" d="M254.328,148.33c-5.935,0-10.762,4.828-10.762,10.76c0,5.935,4.827,10.761,10.762,10.761
						c5.933,0,10.76-4.826,10.76-10.761C265.088,153.158,260.261,148.33,254.328,148.33z"/>
				</g>
			</g>
			<g id="RATCHET_DECK_-_FLAT_ROOF" display="none">
				<line display="inline" fill="none" stroke="#333333" stroke-width="7" x1="75.172" y1="125.554" x2="75.172" y2="134.683"/>
				<line display="inline" fill="none" stroke="#333333" stroke-width="7" x1="154.991" y1="159.612" x2="154.991" y2="163.036"/>
				<line display="inline" fill="none" stroke="#333333" stroke-width="5" x1="154.991" y1="144.199" x2="154.991" y2="159.612"/>
				<line display="inline" fill="none" stroke="#333333" stroke-width="5" x1="409.588" y1="152.8" x2="409.588" y2="157.089"/>
				<line display="inline" fill="none" stroke="#333333" stroke-width="5" x1="406.588" y1="138.199" x2="406.588" y2="157.069"/>
				<line display="inline" fill="none" stroke="#333333" stroke-width="4" x1="169.921" y1="139.917" x2="169.921" y2="155.33"/>
				<line display="inline" fill="none" stroke="#333333" stroke-width="4" x1="240.921" y1="139.917" x2="240.921" y2="155.33"/>
				<line display="inline" fill="none" stroke="#333333" stroke-width="5" x1="163.588" y1="157.33" x2="246.921" y2="157.33"/>
				<line display="inline" fill="none" stroke="#333333" stroke-width="7" x1="150.921" y1="145.623" x2="414.566" y2="145.623"/>
				<polygon display="inline" fill="#333333" points="153.671,133.621 110.254,129.746 153.671,129.746 				"/>
				<g id="side_dd_stp_ecoS_4_" display="inline">
					<path fill="#333333" d="M407.566,38.531v96.941l-249.559-0.005v-5.168v-7h-7H36.055V38.531H407.566 M414.566,31.531H29.055
						v98.768h121.953v12.168l263.559,0.005L414.566,31.531L414.566,31.531z"/>
				</g>
				<line display="inline" fill="none" stroke="#333333" stroke-width="7" x1="286.368" y1="75.762" x2="399.755" y2="75.762"/>
				<path display="inline" fill="#333333" d="M304.016,148.33c-5.934,0-10.761,4.828-10.761,10.76
					c0,5.935,4.827,10.761,10.761,10.761s10.76-4.826,10.76-10.761C314.775,153.158,309.948,148.33,304.016,148.33z"/>
				<path display="inline" fill="#333333" d="M266.882,148.33c-5.935,0-10.761,4.828-10.761,10.76
					c0,5.935,4.826,10.761,10.761,10.761c5.933,0,10.76-4.826,10.76-10.761C277.642,153.158,272.814,148.33,266.882,148.33z"/>
				<path display="inline" fill="#333333" d="M341.149,148.33c-5.934,0-10.761,4.828-10.761,10.76
					c0,5.935,4.827,10.761,10.761,10.761s10.761-4.826,10.761-10.761C351.909,153.158,347.082,148.33,341.149,148.33z"/>
				<polygon display="inline" fill="#333333" points="357.389,86.614 343.061,110.201 328.734,86.614 				"/>
				<polygon display="inline" fill="#333333" points="328.734,64.909 343.063,41.323 357.389,64.909 				"/>
				<line display="inline" fill="none" stroke="#333333" stroke-width="7" x1="165.117" y1="98.738" x2="278.503" y2="98.738"/>
				<polygon display="inline" fill="#333333" points="236.138,109.59 221.811,133.177 207.484,109.59 				"/>
				<polygon display="inline" fill="#333333" points="207.484,87.885 221.813,64.299 236.138,87.885 				"/>
				<line display="inline" fill="none" stroke="#333333" stroke-width="7" x1="43.645" y1="80.945" x2="157.031" y2="80.945"/>
				<polygon display="inline" fill="#333333" points="114.665,91.797 100.338,115.384 86.011,91.797 				"/>
				<polygon display="inline" fill="#333333" points="86.011,70.092 100.34,46.506 114.665,70.092 				"/>
			</g>
			<g id="LIFTING_DECK_-_FLAT_ROOF" display="none">
				<line display="inline" fill="none" stroke="#333333" stroke-width="7" x1="75.172" y1="125.554" x2="75.172" y2="134.683"/>
				<line display="inline" fill="none" stroke="#333333" stroke-width="7" x1="154.991" y1="159.612" x2="154.991" y2="163.036"/>
				<line display="inline" fill="none" stroke="#333333" stroke-width="5" x1="154.991" y1="144.199" x2="154.991" y2="159.612"/>
				<line display="inline" fill="none" stroke="#333333" stroke-width="5" x1="409.588" y1="152.8" x2="409.588" y2="157.089"/>
				<line display="inline" fill="none" stroke="#333333" stroke-width="5" x1="406.588" y1="138.199" x2="406.588" y2="157.069"/>
				<line display="inline" fill="none" stroke="#333333" stroke-width="4" x1="169.921" y1="139.917" x2="169.921" y2="155.33"/>
				<line display="inline" fill="none" stroke="#333333" stroke-width="4" x1="240.921" y1="139.917" x2="240.921" y2="155.33"/>
				<line display="inline" fill="none" stroke="#333333" stroke-width="5" x1="163.588" y1="157.33" x2="246.921" y2="157.33"/>
				<line display="inline" fill="none" stroke="#333333" stroke-width="7" x1="150.921" y1="145.623" x2="414.566" y2="145.623"/>
				<polygon display="inline" fill="#333333" points="153.671,133.621 110.254,129.746 153.671,129.746 				"/>
				<g id="side_dd_stp_ecoS_2_" display="inline">
					<path fill="#333333" d="M407.566,38.531v96.941l-249.559-0.005v-5.168v-7h-7H36.055V38.531H407.566 M414.566,31.531H29.055
						v98.768h121.953v12.168l263.559,0.005L414.566,31.531L414.566,31.531z"/>
				</g>
				<line display="inline" fill="none" stroke="#333333" stroke-width="7" x1="154.991" y1="86.762" x2="414.566" y2="86.762"/>
				<path display="inline" fill="#333333" d="M304.016,148.33c-5.934,0-10.761,4.828-10.761,10.76
					c0,5.935,4.827,10.761,10.761,10.761s10.76-4.826,10.76-10.761C314.775,153.158,309.948,148.33,304.016,148.33z"/>
				<path display="inline" fill="#333333" d="M266.882,148.33c-5.935,0-10.761,4.828-10.761,10.76
					c0,5.935,4.826,10.761,10.761,10.761c5.933,0,10.76-4.826,10.76-10.761C277.642,153.158,272.814,148.33,266.882,148.33z"/>
				<path display="inline" fill="#333333" d="M341.149,148.33c-5.934,0-10.761,4.828-10.761,10.76
					c0,5.935,4.827,10.761,10.761,10.761s10.761-4.826,10.761-10.761C351.909,153.158,347.082,148.33,341.149,148.33z"/>
				<polygon display="inline" fill="#333333" points="307.582,97.614 293.254,121.201 278.928,97.614 				"/>
				<polygon display="inline" fill="#333333" points="278.928,75.909 293.256,52.323 307.582,75.909 				"/>
			</g>
			<g id="TEARDROP" display="none">
				<path display="inline" fill="#333333" d="M341.149,128.412c-8.284,0-15.023,6.739-15.023,15.022s6.739,15.023,15.023,15.023
					c8.283,0,15.023-6.74,15.023-15.023S349.433,128.412,341.149,128.412z"/>
				<path display="inline" fill="#333333" d="M304.016,128.326c-8.331,0-15.109,6.778-15.109,15.108s6.778,15.109,15.109,15.109
					c8.33,0,15.108-6.779,15.108-15.109S312.346,128.326,304.016,128.326z"/>
				<path display="inline" fill="#333333" d="M266.882,128.326c-8.331,0-15.109,6.778-15.109,15.108s6.778,15.109,15.109,15.109
					c8.33,0,15.107-6.779,15.107-15.109S275.212,128.326,266.882,128.326z"/>
				<line display="inline" fill="none" stroke="#333333" stroke-width="7" x1="75.172" y1="123.349" x2="75.172" y2="132.478"/>
				<line display="inline" fill="none" stroke="#333333" stroke-width="7" x1="154.991" y1="140.583" x2="154.991" y2="144.007"/>
				<line display="inline" fill="none" stroke="#333333" stroke-width="5" x1="154.991" y1="125.353" x2="154.991" y2="141.294"/>
				<line display="inline" fill="none" stroke="#333333" stroke-width="4" x1="174.47" y1="125.882" x2="174.47" y2="142.675"/>
				<line display="inline" fill="none" stroke="#333333" stroke-width="4" x1="164.554" y1="132.457" x2="164.554" y2="147.166"/>
				<line display="inline" fill="none" stroke="#333333" stroke-width="4" x1="238.921" y1="127.261" x2="238.921" y2="142.675"/>
				<line display="inline" fill="none" stroke="#333333" stroke-width="5" x1="163.588" y1="144.675" x2="246.921" y2="144.675"/>
				<line display="inline" fill="none" stroke="#333333" stroke-width="5" x1="163.588" y1="134.968" x2="246.921" y2="134.968"/>
				<line display="inline" fill="none" stroke="#333333" stroke-width="5" x1="409.588" y1="140.146" x2="409.588" y2="144.435"/>
				<line display="inline" fill="none" stroke="#333333" stroke-width="5" x1="406.588" y1="125.544" x2="406.588" y2="144.416"/>
				<line display="inline" fill="none" stroke="#333333" stroke-width="7" x1="150.921" y1="127.914" x2="414.566" y2="127.914"/>
				<polygon display="inline" fill="#333333" points="153.671,131.789 110.254,127.914 153.671,127.914 				"/>
				<g display="inline">
					<path fill="#333333" d="M164.264,47.038c0.703,0,1.4,0,2.103,0.002c81.407,0.117,163.896,6.352,241.227,13.223v60.648H36.096
						L36.082,56.59C76.706,50.25,119.793,47.038,164.264,47.038 M164.264,40.038c-45.282,0-90.693,3.268-135.183,10.585
						l0.017,77.289h385.495V53.857h-0.033c-82.031-7.349-165.056-13.698-248.184-13.817h0.09
						C165.73,40.038,165,40.038,164.264,40.038L164.264,40.038z"/>
				</g>
			</g>
			<g id="BOX_VAN_TRAILER" display="none">
				<path display="inline" fill="#333333" d="M341.149,128.412c-8.284,0-15.023,6.739-15.023,15.022s6.739,15.023,15.023,15.023
					c8.283,0,15.023-6.74,15.023-15.023S349.433,128.412,341.149,128.412z"/>
				<g id="side_sd_1_" display="inline">
					<path fill="#333333" d="M407.601,45.623v75.291H36.089V45.623H407.601 M414.601,38.623H29.089v89.291H414.6L414.601,38.623
						L414.601,38.623z"/>
				</g>
				<path display="inline" fill="#333333" d="M304.016,128.326c-8.331,0-15.109,6.778-15.109,15.108s6.778,15.109,15.109,15.109
					c8.33,0,15.108-6.779,15.108-15.109S312.346,128.326,304.016,128.326z"/>
				<path display="inline" fill="#333333" d="M266.882,128.326c-8.331,0-15.109,6.778-15.109,15.108s6.778,15.109,15.109,15.109
					c8.33,0,15.107-6.779,15.107-15.109S275.212,128.326,266.882,128.326z"/>
				<line display="inline" fill="none" stroke="#333333" stroke-width="7" x1="75.172" y1="123.349" x2="75.172" y2="132.478"/>
				<line display="inline" fill="none" stroke="#333333" stroke-width="7" x1="154.991" y1="140.583" x2="154.991" y2="144.007"/>
				<line display="inline" fill="none" stroke="#333333" stroke-width="5" x1="154.991" y1="125.353" x2="154.991" y2="141.294"/>
				<line display="inline" fill="none" stroke="#333333" stroke-width="4" x1="174.47" y1="125.882" x2="174.47" y2="142.675"/>
				<line display="inline" fill="none" stroke="#333333" stroke-width="4" x1="164.554" y1="132.457" x2="164.554" y2="147.166"/>
				<line display="inline" fill="none" stroke="#333333" stroke-width="4" x1="238.921" y1="127.261" x2="238.921" y2="142.675"/>
				<line display="inline" fill="none" stroke="#333333" stroke-width="5" x1="163.588" y1="144.675" x2="246.921" y2="144.675"/>
				<line display="inline" fill="none" stroke="#333333" stroke-width="5" x1="163.588" y1="134.968" x2="246.921" y2="134.968"/>
				<line display="inline" fill="none" stroke="#333333" stroke-width="5" x1="409.588" y1="140.146" x2="409.588" y2="144.435"/>
				<line display="inline" fill="none" stroke="#333333" stroke-width="5" x1="406.588" y1="125.544" x2="406.588" y2="144.416"/>
				<line display="inline" fill="none" stroke="#333333" stroke-width="7" x1="150.921" y1="127.914" x2="414.566" y2="127.914"/>
				<polygon display="inline" fill="#333333" points="153.671,131.789 110.254,127.914 153.671,127.914 				"/>
			</g>
			<g id="CURTAINSIDER_TRAILER">
				<path fill="#333333" d="M341.149,128.412c-8.284,0-15.023,6.739-15.023,15.022s6.739,15.023,15.023,15.023
					c8.283,0,15.023-6.74,15.023-15.023S349.433,128.412,341.149,128.412z"/>
				<g id="side_sd_2_">
					<path fill="#333333" d="M407.601,45.623v75.291H36.089V45.623H407.601 M414.601,38.623H29.089v89.291H414.6L414.601,38.623
						L414.601,38.623z"/>
				</g>
				<path fill="#333333" d="M304.016,128.326c-8.331,0-15.109,6.778-15.109,15.108s6.778,15.109,15.109,15.109
					c8.33,0,15.108-6.779,15.108-15.109S312.346,128.326,304.016,128.326z"/>
				<path fill="#333333" d="M266.882,128.326c-8.331,0-15.109,6.778-15.109,15.108s6.778,15.109,15.109,15.109
					c8.33,0,15.107-6.779,15.107-15.109S275.212,128.326,266.882,128.326z"/>
				<line fill="none" stroke="#333333" stroke-width="7" x1="75.172" y1="123.349" x2="75.172" y2="132.478"/>
				<line fill="none" stroke="#333333" stroke-width="7" x1="154.991" y1="140.583" x2="154.991" y2="144.007"/>
				<line fill="none" stroke="#333333" stroke-width="5" x1="154.991" y1="125.353" x2="154.991" y2="141.294"/>
				<line fill="none" stroke="#333333" stroke-width="4" x1="174.47" y1="125.882" x2="174.47" y2="142.675"/>
				<line fill="none" stroke="#333333" stroke-width="4" x1="164.554" y1="132.457" x2="164.554" y2="147.166"/>
				<line fill="none" stroke="#333333" stroke-width="4" x1="238.921" y1="127.261" x2="238.921" y2="142.675"/>
				<line fill="none" stroke="#333333" stroke-width="5" x1="163.588" y1="144.675" x2="246.921" y2="144.675"/>
				<line fill="none" stroke="#333333" stroke-width="5" x1="163.588" y1="134.968" x2="246.921" y2="134.968"/>
				<line fill="none" stroke="#333333" stroke-width="5" x1="409.588" y1="140.146" x2="409.588" y2="144.435"/>
				<line fill="none" stroke="#333333" stroke-width="5" x1="406.588" y1="125.544" x2="406.588" y2="144.416"/>
				<line fill="none" stroke="#333333" stroke-width="7" x1="150.921" y1="127.914" x2="414.566" y2="127.914"/>
				<polygon fill="#333333" points="153.671,131.789 110.254,127.914 153.671,127.914 				"/>
				<rect x="41.102" y="112.425" fill="#333333" width="2.834" height="12.926"/>
				<rect x="58.11" y="112.425" fill="#333333" width="2.834" height="12.926"/>
				<rect x="75.118" y="112.425" fill="#333333" width="2.834" height="12.926"/>
				<rect x="92.125" y="112.425" fill="#333333" width="2.834" height="12.926"/>
				<rect x="107.716" y="112.425" fill="#333333" width="2.834" height="12.926"/>
				<rect x="124.724" y="112.425" fill="#333333" width="2.834" height="12.926"/>
				<rect x="141.732" y="112.425" fill="#333333" width="2.834" height="12.926"/>
				<rect x="158.74" y="112.425" fill="#333333" width="2.834" height="12.926"/>
				<rect x="175.039" y="112.425" fill="#333333" width="2.834" height="12.926"/>
				<rect x="190.63" y="112.425" fill="#333333" width="2.834" height="12.926"/>
				<rect x="206.22" y="112.425" fill="#333333" width="2.834" height="12.926"/>
				<rect x="222.52" y="112.425" fill="#333333" width="2.835" height="12.926"/>
				<rect x="239.527" y="112.425" fill="#333333" width="2.835" height="12.926"/>
				<rect x="255.118" y="112.425" fill="#333333" width="2.834" height="12.926"/>
				<rect x="275.866" y="112.425" fill="#333333" width="2.834" height="12.926"/>
				<rect x="290.366" y="112.425" fill="#333333" width="2.834" height="12.926"/>
				<rect x="313.283" y="112.425" fill="#333333" width="2.834" height="12.926"/>
				<rect x="327.87" y="112.425" fill="#333333" width="2.834" height="12.926"/>
				<rect x="351.496" y="112.425" fill="#333333" width="2.834" height="12.926"/>
				<rect x="367.087" y="112.425" fill="#333333" width="2.834" height="12.926"/>
				<rect x="382.677" y="112.425" fill="#333333" width="2.834" height="12.926"/>
				<rect x="398.268" y="112.425" fill="#333333" width="2.834" height="12.926"/>
			</g>
		</g>
	</g>
	<g id="TEMPLATE_AREA">
	</g>
</g>
<g id="Layer_2" display="none">
	<g display="inline">
		<path fill="#333333" d="M184.445,43.894c0-11.729,9.508-21.237,21.238-21.237c11.728,0,21.237,9.508,21.237,21.237
			c0,11.728-9.509,21.236-21.237,21.236C193.953,65.13,184.445,55.622,184.445,43.894z M215.889,79.599
			c0.212-4.625,1.804-8.905,4.366-12.443c-1.797-0.377-3.655-0.576-5.562-0.576h-18.019c-1.9,0-3.756,0.198-5.543,0.57
			c2.725,3.78,4.355,8.397,4.382,13.395c3.313-1.822,7.114-2.86,11.152-2.86C209.941,77.685,213.059,78.367,215.889,79.599z
			 M219.484,81.504c6.169,3.869,10.495,10.411,11.286,18.009c2.513,1.175,5.307,1.853,8.266,1.853
			c10.807,0,19.566-8.76,19.566-19.567c0-10.808-8.76-19.567-19.566-19.567C228.327,62.234,219.647,70.836,219.484,81.504z
			 M206.665,121.568c10.805,0,19.566-8.763,19.566-19.566c0-10.805-8.761-19.566-19.566-19.566s-19.569,8.761-19.569,19.566
			C187.096,112.806,195.86,121.568,206.665,121.568z M214.965,122.9h-16.601c-13.813,0-25.054,11.239-25.054,25.055v20.305
			l0.053,0.318l1.397,0.435c13.183,4.117,24.637,5.494,34.064,5.494c18.41,0,29.085-5.249,29.743-5.585l1.308-0.662h0.139v-20.306
			C240.015,134.141,228.78,122.9,214.965,122.9z M247.339,102.702h-16.477c-0.179,6.592-2.992,12.528-7.441,16.796
			c12.278,3.651,21.263,15.037,21.263,28.488v6.257c16.265-0.6,25.64-5.207,26.258-5.518l1.308-0.664h0.138v-20.31
			C272.389,113.939,261.15,102.702,247.339,102.702z M251.743,61.816c6.169,3.869,10.495,10.412,11.283,18.01
			c2.515,1.175,5.307,1.851,8.266,1.851c10.81,0,19.568-8.759,19.568-19.563c0-10.808-8.76-19.566-19.568-19.566
			C260.586,42.546,251.906,51.152,251.743,61.816z M279.595,83.014h-16.474c-0.179,6.592-2.992,12.529-7.441,16.796
			c12.278,3.65,21.263,15.037,21.263,28.488v6.257c16.264-0.599,25.64-5.204,26.258-5.518l1.306-0.663h0.141v-20.311
			C304.649,94.252,293.409,83.014,279.595,83.014z M172.333,101.366c3.828,0,7.387-1.118,10.406-3.021
			c0.959-6.255,4.313-11.723,9.103-15.445c0.02-0.367,0.054-0.729,0.054-1.1c0-10.809-8.762-19.567-19.563-19.567
			c-10.81,0-19.567,8.758-19.567,19.567C152.766,92.608,161.524,101.366,172.333,101.366z M189.905,119.498
			c-4.429-4.246-7.232-10.151-7.439-16.706c-0.609-0.044-1.214-0.09-1.837-0.09h-16.6c-13.815,0-25.054,11.237-25.054,25.052v20.308
			l0.051,0.315l1.399,0.436c10.574,3.308,20.014,4.826,28.213,5.302v-6.131C168.641,134.535,177.624,123.147,189.905,119.498z"/>
	</g>
</g>
<g id="Layer_3" display="none">
	<g display="inline">
		<g>
			<path fill="#333333" d="M174.135,71.451c0.693-0.881,1.401-1.748,2.142-2.582c0.945-1.086,1.937-2.157,2.976-3.181
				c3.732-3.731,7.857-6.928,12.345-9.589v-1.04c0-2.424-1.968-4.377-4.377-4.377h-4.866c-0.866,0-1.669,0.409-2.157,1.118
				l-7.181,10.157l-1.748-3.685l2.787-5.858c0.378-0.803-0.205-1.732-1.086-1.732h-5.574c-0.882,0-1.48,0.929-1.087,1.732
				l2.788,5.858l-1.716,3.622l-7.007-10.062c-0.488-0.708-1.307-1.149-2.173-1.149h-5.117c-2.425,0-4.377,1.969-4.377,4.377v29.115
				h17.746C168.513,79.624,171.08,75.373,174.135,71.451z"/>
			<path fill="#333333" d="M156.027,33.771c0,7.778,6.33,14.108,14.108,14.108c7.779,0,14.109-6.33,14.109-14.108
				c0-7.779-6.33-14.109-14.109-14.109C162.357,19.662,156.027,25.992,156.027,33.771z"/>
			<path fill="#333333" d="M289.051,50.682c-0.866,0-1.669,0.409-2.156,1.118l-7.181,10.157l-1.748-3.685l2.787-5.858
				c0.377-0.803-0.205-1.732-1.086-1.732h-5.575c-0.882,0-1.479,0.929-1.085,1.732l2.785,5.858l-1.715,3.622l-6.991-10.062
				c-0.489-0.708-1.308-1.149-2.173-1.149h-5.118c-2.426,0-4.378,1.968-4.378,4.377v1.119c4.426,2.629,8.504,5.811,12.188,9.495
				c1.071,1.071,2.096,2.173,3.071,3.291c0.692,0.803,1.386,1.637,2.031,2.472c3.055,3.92,5.637,8.172,7.684,12.723h17.904v-29.1
				c0-2.424-1.969-4.377-4.378-4.377H289.051L289.051,50.682z"/>
			<path fill="#333333" d="M262.74,33.771c0,7.778,6.33,14.108,14.108,14.108c7.779,0,14.108-6.33,14.108-14.108
				c0-7.779-6.329-14.109-14.108-14.109C269.07,19.662,262.74,25.992,262.74,33.771z"/>
			<path fill="#333333" d="M295.98,157.474l-19.353-14.833c-2.535,4.126-5.559,7.937-9.022,11.4
				c-0.284,0.283-0.583,0.567-0.882,0.851l19.668,15.068c1.432,1.103,3.117,1.622,4.786,1.622c2.361,0,4.708-1.055,6.251-3.086
				C300.074,165.063,299.428,160.119,295.98,157.474z"/>
			<path fill="#333333" d="M244.93,109.573c0-2.425-1.969-4.378-4.378-4.378h-4.864c-0.866,0-1.67,0.41-2.157,1.119l-7.181,10.156
				l-1.748-3.685l2.787-5.858c0.377-0.803-0.205-1.732-1.087-1.732h-5.574c-0.882,0-1.48,0.93-1.086,1.732l2.787,5.858l-1.716,3.621
				l-6.976-10.062c-0.488-0.708-1.307-1.15-2.173-1.15h-5.118c-2.424,0-4.377,1.969-4.377,4.379v29.114h42.876v-29.115H244.93z"/>
			<path fill="#333333" d="M223.499,102.409c7.778,0,14.108-6.331,14.108-14.109c0-7.778-6.33-14.108-14.108-14.108
				c-7.779,0-14.108,6.33-14.108,14.108S215.72,102.409,223.499,102.409z"/>
			<path fill="#333333" d="M200.635,163.804c7.228,3.055,14.896,4.598,22.785,4.598c7.905,0,15.574-1.543,22.785-4.598
				c6.44-2.724,12.267-6.535,17.354-11.321c0.424-0.395,0.85-0.804,1.259-1.213c3.338-3.338,6.236-7.038,8.661-11.022
				c1.464-2.44,2.771-4.96,3.873-7.589c3.055-7.229,4.598-14.896,4.598-22.785s-1.543-15.573-4.598-22.785
				c-0.409-0.976-0.851-1.953-1.323-2.897c-2.834-5.811-6.597-11.086-11.227-15.715c-2.882-2.881-6.03-5.433-9.4-7.637
				c-2.914-1.906-5.983-3.543-9.212-4.913c-7.227-3.055-14.896-4.598-22.785-4.598c-7.904,0-15.572,1.543-22.785,4.598
				c-3.165,1.338-6.188,2.944-9.054,4.803c-3.433,2.22-6.629,4.803-9.558,7.731c-4.613,4.614-8.377,9.889-11.228,15.715
				c-0.456,0.945-0.913,1.921-1.322,2.897c-3.055,7.227-4.598,14.896-4.598,22.784c0,7.89,1.543,15.573,4.598,22.785
				c2.944,6.976,7.165,13.228,12.55,18.612C187.393,156.624,193.66,160.843,200.635,163.804z M190.621,84.174
				c0.315-0.394,0.63-0.787,0.961-1.165c0.756-0.897,1.543-1.763,2.394-2.598c7.873-7.873,18.329-12.204,29.461-12.204
				s21.588,4.331,29.446,12.204c0.896,0.898,1.747,1.827,2.55,2.787c0.268,0.331,0.535,0.646,0.804,0.992
				c5.747,7.306,8.85,16.25,8.85,25.683c0,11.133-4.331,21.588-12.203,29.461c-7.874,7.873-18.329,12.203-29.446,12.203
				s-21.589-4.33-29.446-12.203c-7.873-7.873-12.204-18.328-12.204-29.461C181.771,100.425,184.889,91.48,190.621,84.174z"/>
		</g>
	</g>
</g>
<g id="Layer_4" display="none">
	<g display="inline">
		<path fill="#FFFFFF" d="M215.465,141.851c-14.627,1.082-40.781,7.258-62.307,14.246V48.246
			c29.615-9.616,68.075-17.692,73.074-13.077c4.432,4.09-10.771,11.502-10.809,17.151L215.465,141.851z"/>
		<path fill="#333333" d="M149.16,161.601V45.338l2.764-0.898c21.81-7.081,52.938-14.607,67.67-14.607
			c4.673,0,7.557,0.739,9.352,2.396c1.366,1.261,2.092,2.862,2.098,4.63c0.012,3.786-3.272,6.855-6.75,10.105
			c-1.604,1.5-4.576,4.278-4.869,5.445l0.043,93.156l-3.707,0.273c-13.77,1.02-39.004,6.803-61.365,14.064L149.16,161.601z
			 M157.16,51.164v99.472c19.643-6.064,40.698-10.881,54.303-12.422l-0.039-85.893c0.029-4.305,3.779-7.811,7.406-11.201
			c0.942-0.881,2.293-2.143,3.227-3.179c-0.608-0.063-1.413-0.109-2.463-0.109C207.834,37.833,181.397,43.503,157.16,51.164z"/>
	</g>
	<g display="inline">
		<path fill="#FFFFFF" d="M215.869,54.397l-0.404,105.43l0,0c-0.006,0.73,0.195,1.764,0.77,2.426
			c5,5.768,74.229-13.463,74.229-13.463V40.938C290.461,40.938,220.869,60.167,215.869,54.397"/>
		<path fill="#333333" d="M221.17,167.331c-4.084,0-6.465-0.734-7.959-2.459c-1.603-1.85-1.754-4.172-1.746-5.086l0.445-107.064
			l6.579-1.409c0.347,0.069,1.056,0.165,2.337,0.165c16.287,0,68.049-14.251,68.569-14.396l5.065-1.4v116.147l-2.931,0.813
			C289.373,153.243,238.457,167.331,221.17,167.331z M219.467,159.257c0.397,0.041,0.951,0.074,1.703,0.074
			c13.955,0,54.092-10.572,65.291-13.598v-99.57c-13.74,3.666-51.267,13.314-65.635,13.314c-0.337,0-0.662-0.005-0.977-0.015
			L219.467,159.257z"/>
	</g>
	<g display="inline">
		<rect x="275.523" y="136.753" fill="#333333" width="8" height="15.104"/>
	</g>
	<g display="inline">
		<rect x="257.685" y="140.714" fill="#333333" width="8" height="15.104"/>
	</g>
	<g display="inline">
		<rect x="240.362" y="144.675" fill="#333333" width="8" height="15.105"/>
	</g>
	<g display="inline">
		<rect x="221.791" y="147.646" fill="#333333" width="8" height="15.105"/>
	</g>
	<g display="inline">
		<rect x="201.541" y="127.839" fill="#333333" width="8" height="15.104"/>
	</g>
	<g display="inline">
		<rect x="182.402" y="130.808" fill="#333333" width="8" height="15.105"/>
	</g>
	<g display="inline">
		<rect x="163.346" y="136.753" fill="#333333" width="8" height="15.104"/>
	</g>
</g>
<g id="Layer_5" display="none">
	<g display="inline">
		<path d="M195.852,123.176c-2.505-1.978-5.643-3.067-8.837-3.067c-4.34,0-8.383,1.928-11.09,5.292
			c-2.368,2.943-3.438,6.629-3.016,10.372c0.424,3.751,2.292,7.111,5.27,9.464c2.503,1.979,5.641,3.068,8.835,3.068
			c4.342,0,8.385-1.932,11.09-5.302c2.366-2.937,3.436-6.617,3.016-10.361C200.698,128.892,198.827,125.531,195.852,123.176z
			 M193.064,138.955c-1.473,1.832-3.677,2.883-6.05,2.883c-1.771,0-3.438-0.579-4.825-1.673c-1.613-1.275-2.625-3.092-2.857-5.118
			c-0.226-2.015,0.353-4.005,1.63-5.592c1.475-1.83,3.682-2.881,6.053-2.881c1.772,0,3.44,0.582,4.827,1.675
			c1.611,1.273,2.624,3.093,2.853,5.119C194.92,135.383,194.343,137.366,193.064,138.955z"/>
		<path d="M252.71,90.057c2.132,0,4.194-0.466,6.134-1.39c3.431-1.643,6.005-4.512,7.251-8.083
			c1.241-3.547,1.017-7.365-0.626-10.747c-2.353-4.846-7.373-7.979-12.793-7.979c-2.136,0-4.204,0.469-6.144,1.394
			c-3.425,1.635-6.004,4.503-7.253,8.074c-1.239,3.552-1.018,7.37,0.629,10.754C242.265,86.927,247.292,90.057,252.71,90.057z
			 M245.384,73.462c0.677-1.932,2.072-3.485,3.934-4.373c1.063-0.507,2.192-0.764,3.358-0.764c2.957,0,5.696,1.701,6.976,4.338
			c0.887,1.823,1.006,3.878,0.339,5.79c-0.675,1.934-2.073,3.486-3.932,4.376c-1.059,0.505-2.188,0.761-3.351,0.761
			c-2.959,0-5.704-1.702-6.988-4.34C244.835,77.429,244.715,75.374,245.384,73.462z"/>
		<path d="M217.521,67.206c1.041,0.236,2.106,0.355,3.165,0.355c6.656,0,12.344-4.501,13.83-10.954
			c0.839-3.66,0.193-7.426-1.809-10.607c-2.019-3.207-5.17-5.435-8.878-6.276c-1.044-0.236-2.113-0.357-3.178-0.357
			c-6.65,0-12.334,4.507-13.815,10.958c-0.842,3.656-0.203,7.422,1.799,10.607C210.654,64.143,213.811,66.372,217.521,67.206z
			 M213.138,51.775c0.804-3.498,3.896-5.94,7.514-5.94c0.581,0,1.17,0.066,1.744,0.197c2.022,0.458,3.742,1.67,4.837,3.412
			c1.082,1.718,1.429,3.75,0.979,5.716c-0.791,3.438-3.958,5.935-7.526,5.935c-0.582,0-1.166-0.066-1.74-0.195
			c-2.023-0.456-3.739-1.667-4.837-3.41C213.031,55.773,212.685,53.744,213.138,51.775z"/>
		<path d="M191.827,75.274c2.973-2.355,4.841-5.717,5.263-9.47c0.421-3.741-0.648-7.421-3.013-10.366
			c-2.711-3.362-6.757-5.29-11.1-5.29c-3.19,0-6.325,1.086-8.829,3.061c-2.973,2.348-4.841,5.706-5.266,9.455
			c-0.424,3.747,0.648,7.433,3.017,10.382c2.711,3.366,6.757,5.297,11.102,5.297C186.196,78.343,189.33,77.253,191.827,75.274z
			 M176.942,68.992c-1.281-1.593-1.86-3.583-1.632-5.602c0.229-2.023,1.241-3.837,2.847-5.106c1.385-1.093,3.053-1.67,4.823-1.67
			c2.374,0,4.584,1.05,6.06,2.878c1.275,1.588,1.852,3.572,1.625,5.588c-0.226,2.028-1.239,3.849-2.852,5.125
			c-1.377,1.092-3.043,1.67-4.809,1.67C180.623,71.875,178.417,70.823,176.942,68.992z"/>
		<path d="M324.07,43.632c-0.561-0.563-1.557-1.236-3.131-1.236c-1.843,0-6.743,0-36.504,25.324
			c-0.599,0.509-1.201,1.024-1.809,1.544c-5.315-13.871-14.659-26.236-26.698-35.182c-13.802-10.256-30.239-15.68-47.528-15.684
			c-0.009,0-0.011,0-0.015,0c-11.669,0-25.854,4.078-37.021,10.643c-13.688,8.046-21.227,18.809-21.223,30.302
			c0.004,13.875,7.83,19.679,14.118,24.343c5.128,3.804,9.178,6.806,9.18,13.387c0.002,6.582-4.046,9.584-9.171,13.381
			c-6.286,4.662-14.11,10.462-14.106,24.34c0.004,11.492,7.543,22.257,21.237,30.31c11.175,6.572,25.366,10.659,37.038,10.661
			c0.007,0,0.014,0,0.021,0c21.182,0,41.093-8.175,56.069-23.019c14.786-14.657,23.007-34.085,23.226-54.788
			c5.021-5.713,9.883-11.39,14.322-16.742c7.599-9.153,13.438-16.706,17.361-22.449C324.636,51.163,326.914,46.499,324.07,43.632z
			 M259.978,148.153c-13.757,13.638-32.052,21.146-51.519,21.146c-0.004,0-0.013,0-0.021,0
			c-20.856-0.002-51.803-14.497-51.809-34.507c-0.004-10.62,5.581-14.76,11.49-19.14c5.525-4.098,11.789-8.742,11.787-18.58
			c-0.004-9.836-6.268-14.482-11.794-18.579c-5.916-4.388-11.5-8.529-11.504-19.151c-0.002-12.287,11.298-20.766,18.033-24.726
			c10.076-5.924,23.32-9.751,33.745-9.751c0.002,0,0.006,0,0.01,0c15.895,0.004,30.996,4.988,43.678,14.409
			c11.694,8.689,20.624,20.889,25.323,34.516c-14.022,12.248-29.21,26.364-40.519,37.714c-18.787,2.43-21.347,14.95-23.218,24.148
			c-1.593,7.832-2.628,11.616-8.673,12.101c-1.488,0.122-2.702,1.246-2.934,2.721c-0.235,1.477,0.575,2.919,1.954,3.491
			c0.39,0.16,9.636,3.939,20.438,3.939c0,0,0.002,0,0.005,0c7.526,0,13.983-1.825,19.19-5.423
			c6.417-4.436,10.766-11.465,12.953-20.894c7.391-7.476,15.835-16.491,24.184-25.779
			C278.855,121.796,271.64,136.591,259.978,148.153z M250.095,130.975c-3.425,13.579-12.047,20.463-25.646,20.463h-0.005
			c-3.588,0-7.021-0.492-9.908-1.101c3.448-3.518,4.526-8.811,5.459-13.396c1.776-8.734,3.458-16.999,17.204-18.965L250.095,130.975
			z M294.747,79.909c-12.817,15.272-28.333,32.42-41.104,45.46l-1.979-1.995l-8.724-8.792
			c11.581-11.529,26.438-25.273,40.298-37.301l0,0c1.613-1.402,3.22-2.787,4.802-4.136c16.084-13.718,24.513-19.688,28.814-22.286
			C314.285,55.185,308.371,63.678,294.747,79.909z"/>
	</g>
</g>
<g id="Layer_6" display="none">
	<path display="inline" fill="#333333" d="M303.331,90.145c-0.239-2.138-2.731-3.744-4.887-3.744
		c-6.962,0-13.145-4.086-15.734-10.412c-2.646-6.479-0.938-14.031,4.25-18.793c1.632-1.493,1.832-3.996,0.463-5.731
		c-3.566-4.526-7.617-8.617-12.042-12.161c-1.729-1.387-4.272-1.194-5.773,0.468c-4.531,5.018-12.667,6.882-18.955,4.258
		c-6.543-2.752-10.673-9.382-10.265-16.5c0.134-2.237-1.503-4.18-3.733-4.44c-5.675-0.658-11.403-0.677-17.1-0.044
		c-2.198,0.243-3.833,2.14-3.761,4.349c0.247,7.047-3.928,13.562-10.408,16.214c-6.211,2.538-14.292,0.688-18.813-4.284
		c-1.496-1.637-3.993-1.839-5.737-0.48c-4.553,3.574-8.695,7.666-12.294,12.154c-1.403,1.746-1.195,4.275,0.453,5.774
		c5.292,4.792,6.998,12.41,4.249,18.963c-2.621,6.249-9.111,10.272-16.536,10.272c-2.409-0.078-4.127,1.542-4.391,3.731
		c-0.668,5.707-0.675,11.528-0.033,17.281c0.24,2.146,2.805,3.74,4.984,3.74c6.62-0.17,12.969,3.927,15.638,10.413
		c2.655,6.478,0.946,14.027-4.249,18.795c-1.626,1.492-1.834,3.989-0.462,5.723c3.527,4.499,7.583,8.591,12.021,12.164
		c1.742,1.402,4.275,1.206,5.786-0.456c4.549-5.028,12.684-6.892,18.946-4.262c6.561,2.744,10.687,9.375,10.284,16.492
		c-0.13,2.238,1.506,4.19,3.728,4.442c2.911,0.34,5.832,0.509,8.762,0.509c2.779,0,5.561-0.152,8.342-0.462
		c2.203-0.244,3.836-2.144,3.761-4.352c-0.256-7.045,3.93-13.56,10.399-16.209c6.255-2.553,14.301-0.681,18.822,4.282
		c1.501,1.633,3.985,1.833,5.735,0.479c4.546-3.563,8.68-7.651,12.294-12.155c1.402-1.74,1.206-4.272-0.451-5.773
		c-5.29-4.788-7.004-12.411-4.256-18.961c2.581-6.164,8.826-10.302,15.547-10.302l0.938,0.028c2.181,0.175,4.184-1.503,4.449-3.731
		C303.97,101.712,303.978,95.9,303.331,90.145z M227.812,142.397c-24.198,0-43.814-19.616-43.814-43.814
		c0-24.197,19.616-43.813,43.814-43.813c24.199,0,43.814,19.616,43.814,43.813c0,8.212-2.264,15.897-6.197,22.466l-19.186-19.185
		c1.388-3.276,2.123-6.827,2.123-10.49c0-7.174-2.795-13.919-7.873-18.992c-5.072-5.073-11.815-7.867-18.99-7.867
		c-2.394,0-4.777,0.317-7.082,0.947c-1.011,0.275-1.835,1.107-2.103,2.121c-0.276,1.034,0.034,2.096,0.843,2.903
		c0,0,9.47,9.543,12.639,12.711c0.334,0.334,0.332,1.126,0.286,1.41l-0.029,0.208c-0.319,3.482-0.936,7.667-1.443,9.273
		c-0.071,0.069-0.134,0.125-0.203,0.193c-0.074,0.075-0.139,0.145-0.209,0.22c-1.63,0.521-5.876,1.145-9.415,1.462v-0.019
		l-0.159,0.039c-0.029,0.002-0.082,0.009-0.152,0.009c-0.382,0-0.947-0.109-1.457-0.619c-3.297-3.298-12.399-12.335-12.399-12.335
		c-0.817-0.812-1.655-0.983-2.211-0.983c-1.301,0-2.465,0.941-2.832,2.288c-2.507,9.27,0.148,19.243,6.932,26.023
		c5.073,5.073,11.819,7.869,18.992,7.869c3.667,0,7.214-0.734,10.487-2.122l19.394,19.393
		C244.579,139.862,236.494,142.397,227.812,142.397z"/>
</g>
<g id="Layer_7" display="none">
	<g display="inline">
		<g>
			<g>
				<polygon fill="#333333" points="225.65,67.862 225.65,106.265 258.522,125.772 264.052,116.44 237.171,100.503 237.171,67.862 
									"/>
				<path fill="#333333" d="M233.293,29.459c-38.21,0-69.083,30.951-69.083,69.124h-23.043l29.914,29.915l0.54,1.115l30.989-31.03
					H179.57c0-29.685,24.078-53.763,53.763-53.763c29.683,0,53.761,24.078,53.761,53.763c0,29.686-24.078,53.76-53.761,53.76
					c-14.862,0-28.265-6.064-37.979-15.781l-10.868,10.867c12.479,12.52,29.722,20.277,48.808,20.277
					c38.207-0.002,69.161-30.951,69.161-69.124S271.5,29.459,233.293,29.459z"/>
			</g>
		</g>
	</g>
</g>
<g id="Layer_8">
	<g>
		<g>
			<path fill="#333333" d="M265.39,120.434c-4.622-4.563-10.39-4.563-14.985,0c-3.502,3.476-7.008,6.947-10.452,10.481
				c-0.943,0.974-1.736,1.178-2.884,0.531c-2.267-1.235-4.682-2.238-6.861-3.59c-10.16-6.391-18.667-14.607-26.206-23.849
				c-3.739-4.596-7.065-9.511-9.394-15.047c-0.47-1.117-0.382-1.854,0.53-2.767c3.504-3.385,6.919-6.859,10.365-10.333
				c4.797-4.829,4.797-10.483-0.029-15.341c-2.74-2.767-5.479-5.475-8.217-8.243c-2.825-2.827-5.624-5.683-8.479-8.479
				c-4.622-4.505-10.392-4.505-14.988,0.03c-3.533,3.473-6.917,7.037-10.51,10.453c-3.327,3.15-5.006,7.008-5.36,11.513
				c-0.558,7.33,1.237,14.25,3.769,20.995c5.184,13.956,13.073,26.35,22.644,37.714c12.924,15.369,28.353,27.53,46.402,36.304
				c8.125,3.945,16.546,6.977,25.702,7.479c6.303,0.355,11.778-1.237,16.165-6.153c3.003-3.357,6.388-6.417,9.569-9.627
				c4.711-4.771,4.74-10.539,0.058-15.251C276.642,131.623,271.016,126.027,265.39,120.434z"/>
			<path fill="#333333" d="M259.77,96.969l10.866-1.855c-1.711-9.983-6.419-19.021-13.573-26.205
				c-7.567-7.566-17.136-12.337-27.678-13.81l-1.529,10.924c8.153,1.147,15.572,4.828,21.432,10.688
				C254.823,82.246,258.445,89.253,259.77,96.969z"/>
			<path fill="#333333" d="M276.757,49.742c-12.544-12.544-28.411-20.464-45.931-22.908l-1.532,10.923
				c15.134,2.119,28.856,8.979,39.688,19.786c10.276,10.276,17.021,23.26,19.464,37.54l10.864-1.854
				C296.455,76.682,288.653,61.666,276.757,49.742z"/>
		</g>
	</g>
</g>
<g id="Layer_9" display="none">
	<g display="inline">
		<path fill="#333333" d="M199.334,116.541c1.053-0.28,2.135-0.424,3.225-0.424c0.858,0,1.713,0.086,2.544,0.267
			c1.631-4.962,6.302-8.552,11.799-8.552h9.545c2.532,0,4.876,0.791,6.843,2.098c0.245-1.646,0.786-3.253,1.643-4.744l6.011-10.412
			c0.533-0.922,1.187-1.732,1.897-2.491l-10.358-8.509l4.294-3.791l10.997,9.028c0.438-0.17,0.865-0.373,1.324-0.498
			c1.135-0.303,2.305-0.459,3.479-0.459c1.649,0,3.282,0.304,4.811,0.894c1.016-6.414,6.58-11.331,13.271-11.331h6.175V40.668
			c0-5.597-4.537-10.135-10.137-10.135H154.033c-5.597,0-10.137,4.538-10.137,10.135v68.267c0,5.599,4.54,10.137,10.137,10.137
			h40.535C195.949,117.905,197.547,117.015,199.334,116.541z M159.04,42.907c1.553-1.761,4.233-1.924,5.991-0.376l41.437,36.57
			c2.229,1.962,5.572,1.962,7.801,0l41.435-36.57c1.758-1.543,4.438-1.383,5.988,0.376c1.549,1.758,1.381,4.437-0.377,5.989
			l-41.433,36.568c-2.708,2.391-6.113,3.585-9.514,3.585c-3.401,0-6.802-1.194-9.515-3.585l-41.437-36.57
			C157.659,47.342,157.491,44.663,159.04,42.907z M158.862,107.91c-0.526,0.435-1.162,0.646-1.792,0.646
			c-0.815,0-1.628-0.353-2.188-1.033c-0.992-1.208-0.815-2.988,0.391-3.98l28.688-23.556l4.298,3.791L158.862,107.91z"/>
		<path fill="#333333" d="M276.672,109.746c-6.949,0-12.602,5.652-12.602,12.599c0,6.949,5.652,12.604,12.602,12.604
			c6.945,0,12.602-5.654,12.602-12.604C289.274,115.398,283.617,109.746,276.672,109.746z"/>
		<path fill="#333333" d="M309.25,128.495l-4.544-2.62c0.147-1.174,0.358-2.321,0.358-3.53c0-1.213-0.211-2.364-0.358-3.533
			l4.544-2.623c1.135-0.657,1.967-1.735,2.307-3.009c0.338-1.267,0.162-2.614-0.496-3.754l-6.011-10.407
			c-0.915-1.59-2.581-2.475-4.294-2.475c-0.836,0-1.688,0.213-2.467,0.662l-4.515,2.605c-1.896-1.44-3.915-2.727-6.143-3.661v-5.097
			c0-2.737-2.217-4.95-4.947-4.95h-12.02c-2.737,0-4.95,2.217-4.95,4.95v5.097c-2.229,0.935-4.244,2.217-6.142,3.661l-4.516-2.608
			c-0.76-0.438-1.614-0.663-2.475-0.663c-0.43,0-0.86,0.055-1.282,0.168c-1.266,0.34-2.348,1.168-3.008,2.307l-6.007,10.411
			c-1.368,2.366-0.559,5.393,1.812,6.763l2.385,1.373c0.332,0.176,0.651,0.358,0.967,0.563l1.188,0.684
			c-0.011,0.068-0.013,0.136-0.022,0.209c1.139,0.933,2.18,1.996,2.936,3.307l4.781,8.279c1.642,2.864,2.082,6.195,1.229,9.405
			c-0.517,1.913-1.459,3.635-2.745,5.072c0.491,0.556,0.918,1.158,1.303,1.78l3.45-1.989c1.895,1.442,3.913,2.729,6.142,3.661v5.1
			c0,2.737,2.217,4.949,4.95,4.949h12.021c2.732,0,4.949-2.215,4.949-4.949v-5.1c2.229-0.932,4.243-2.219,6.143-3.661l4.515,2.606
			c0.756,0.438,1.61,0.659,2.476,0.659c0.426,0,0.855-0.051,1.282-0.168c1.266-0.338,2.344-1.167,3.003-2.307l6.011-10.411
			C312.428,132.892,311.615,129.863,309.25,128.495z M276.672,140.603c-10.069,0-18.258-8.188-18.258-18.258
			c0-10.067,8.188-18.258,18.258-18.258c10.067,0,18.258,8.19,18.258,18.258C294.93,132.414,286.74,140.603,276.672,140.603z"/>
		<path fill="#333333" d="M247.531,149.966l-3.605-2.082c0.118-0.93,0.282-1.844,0.282-2.803c0-0.958-0.164-1.872-0.282-2.803
			l3.605-2.081c0.903-0.522,1.561-1.379,1.831-2.389c0.267-1.006,0.127-2.077-0.393-2.983l-4.77-8.258
			c-0.731-1.264-2.053-1.969-3.409-1.969c-0.664,0-1.34,0.172-1.959,0.528l-3.583,2.067c-1.508-1.146-3.111-2.165-4.874-2.907
			v-4.044c0-2.172-1.762-3.93-3.933-3.93h-9.541c-2.17,0-3.928,1.758-3.928,3.93v4.044c-1.77,0.742-3.372,1.762-4.876,2.907
			l-3.585-2.071c-0.603-0.349-1.272-0.524-1.956-0.524c-0.343,0-0.688,0.045-1.026,0.135c-1.004,0.267-1.86,0.927-2.385,1.828
			l-4.77,8.26c-1.084,1.881-0.438,4.286,1.438,5.372l3.604,2.081c-0.117,0.929-0.281,1.844-0.281,2.803s0.164,1.873,0.281,2.799
			l-3.604,2.081c-1.877,1.086-2.522,3.487-1.438,5.368l4.77,8.264c0.524,0.901,1.383,1.562,2.385,1.832
			c0.338,0.09,0.68,0.133,1.02,0.133c0.685,0,1.36-0.18,1.963-0.528l3.581-2.069c1.508,1.149,3.11,2.168,4.88,2.907v4.05
			c0,2.17,1.758,3.928,3.928,3.928h9.545c2.167,0,3.929-1.758,3.929-3.928v-4.05c1.767-0.739,3.368-1.758,4.876-2.907l3.584,2.069
			c0.6,0.349,1.28,0.528,1.96,0.528c0.34,0,0.685-0.043,1.021-0.133c1.004-0.271,1.86-0.931,2.389-1.832l4.768-8.262
			C250.055,153.452,249.41,151.051,247.531,149.966z M221.673,155.915c-5.979,0-10.829-4.854-10.829-10.834
			c0-5.986,4.851-10.833,10.829-10.833c5.982,0,10.833,4.852,10.833,10.833C232.506,151.062,227.656,155.915,221.673,155.915z"/>
	</g>
</g>
</svg>
